<?xml version="1.0" standalone="no"?>
<!DOCTYPE svg PUBLIC "-//W3C//DTD SVG 20010904//EN"
 "http://www.w3.org/TR/2001/REC-SVG-20010904/DTD/svg10.dtd">
<svg version="1.0" xmlns="http://www.w3.org/2000/svg"
 width="400.000000pt" height="400.000000pt" viewBox="0 0 400.000000 400.000000"
 preserveAspectRatio="xMidYMid meet">
<metadata>
Created by potrace 1.14, written by Peter Selinger 2001-2017
</metadata>
<g transform="translate(0.000000,400.000000) scale(0.100000,-0.100000)"
fill="#000000" stroke="none">
<path d="M0 2000 l0 -2000 2000 0 2000 0 0 2000 0 2000 -2000 0 -2000 0 0
-2000z m2100 1612 c13 -11 20 -24 16 -30 -9 -15 -36 -16 -36 -1 0 8 -4 8 -14
0 -12 -10 -17 -9 -24 6 -21 42 17 58 58 25z m70 -16 c0 -3 -4 -8 -10 -11 -5
-3 -10 -1 -10 4 0 6 5 11 10 11 6 0 10 -2 10 -4z m70 -6 c0 -5 -7 -7 -15 -4
-8 4 -15 8 -15 10 0 2 7 4 15 4 8 0 15 -4 15 -10z m105 -60 c3 -5 -3 -10 -14
-10 -12 0 -21 5 -21 10 0 6 6 10 14 10 8 0 18 -4 21 -10z m-603 -79 c2 -4 55
-11 118 -14 82 -5 137 -13 190 -31 88 -29 164 -61 182 -79 7 -7 34 -28 60 -47
27 -18 47 -35 45 -36 -1 -1 -34 13 -73 31 -89 43 -115 49 -162 40 -31 -6 -34
-9 -17 -15 l20 -9 -20 -1 -20 -1 20 -9 c12 -5 14 -9 6 -9 -11 -1 -10 -4 4 -14
10 -8 15 -18 12 -23 -3 -5 8 -17 24 -26 16 -10 29 -13 29 -7 0 5 6 4 14 -3 12
-11 12 -14 -1 -22 -13 -7 -13 -10 -2 -17 12 -8 12 -11 -1 -19 -11 -8 -8 -9 13
-4 20 5 27 2 27 -9 0 -9 7 -23 16 -32 13 -12 14 -19 4 -30 -8 -10 -9 -15 -2
-15 6 0 9 -7 5 -16 -5 -14 -3 -14 15 -3 11 7 18 17 16 21 -3 4 0 8 5 8 16 0
13 -16 -4 -30 -10 -9 -12 -16 -6 -24 6 -7 8 -22 4 -34 -3 -13 -1 -22 6 -22 7
0 9 5 5 12 -4 7 -3 8 4 4 16 -10 15 -31 -3 -46 -13 -10 -12 -15 8 -31 15 -12
17 -18 8 -19 -11 0 -10 -5 5 -19 10 -10 22 -17 26 -14 4 2 5 -3 1 -12 -3 -9
-9 -12 -12 -7 -3 5 -17 12 -31 16 l-25 7 23 -20 c12 -11 21 -23 20 -28 -3 -12
12 -53 21 -53 8 0 7 -47 -2 -56 -3 -4 4 -15 16 -25 12 -10 18 -18 13 -19 -5 0
-3 -6 3 -13 8 -10 6 -19 -10 -36 -20 -21 -20 -23 -4 -35 16 -11 16 -14 1 -28
-9 -9 -16 -21 -16 -27 0 -6 -4 -11 -10 -11 -5 0 -10 -8 -10 -18 0 -10 -5 -23
-12 -30 -8 -8 -8 -12 -1 -12 6 0 13 -10 17 -23 l5 -23 301 2 c178 1 300 -1
300 -7 0 -5 -12 -9 -27 -9 -47 0 -18 -10 58 -19 40 -6 75 -14 77 -20 2 -5 11
-7 20 -4 13 4 12 2 -3 -10 -11 -8 -23 -13 -28 -10 -20 12 -311 18 -329 7 -7
-4 -27 -9 -46 -10 -19 -1 -39 -10 -47 -21 -8 -10 -15 -15 -15 -11 0 3 -26 0
-57 -7 -32 -7 -82 -13 -112 -14 -29 0 -56 -2 -59 -5 -3 -3 10 -6 28 -6 26 0
31 -3 22 -12 -6 -6 -51 -14 -99 -16 -49 -2 -100 -11 -116 -19 -19 -9 -43 -12
-77 -7 -27 3 -71 3 -97 -1 -43 -7 -46 -8 -25 -18 12 -5 22 -14 22 -19 0 -5 6
-6 13 -1 6 4 21 8 32 8 11 0 25 4 32 8 8 5 7 -2 -2 -20 -20 -38 -19 -53 5 -53
11 0 20 6 20 13 0 8 9 24 20 37 16 18 20 20 20 7 0 -10 4 -17 9 -17 5 0 7 -19
4 -42 l-6 -41 22 22 c16 16 20 26 13 33 -14 14 -4 38 14 31 8 -3 14 0 14 6 0
6 -6 11 -14 11 -8 0 -16 7 -20 15 -3 10 1 15 14 15 10 0 22 -9 25 -21 4 -11 9
-18 12 -15 8 8 45 -30 43 -45 -7 -46 -3 -49 60 -42 54 5 62 3 96 -22 84 -64
105 -168 57 -291 -4 -10 0 -12 11 -8 14 5 15 3 6 -22 -6 -16 -17 -32 -23 -36
-9 -6 -9 -8 1 -8 6 0 12 -5 12 -10 0 -6 -5 -9 -11 -8 -6 2 -14 -3 -16 -9 -3
-7 -1 -13 4 -13 18 0 7 -143 -13 -180 -10 -19 -19 -39 -20 -45 -2 -26 -35 -83
-66 -116 -19 -20 -32 -41 -30 -48 3 -8 -3 -8 -22 -1 -15 5 -26 6 -26 0 0 -5
-10 -10 -22 -12 -12 -2 -23 -8 -25 -15 -3 -9 4 -10 28 -3 17 5 36 7 40 4 15
-9 10 -34 -7 -34 -8 0 -12 -4 -9 -10 3 -5 -1 -10 -9 -10 -8 0 -21 -6 -28 -13
-18 -17 -71 -40 -63 -27 7 11 -6 13 -29 4 -9 -3 -16 -13 -16 -21 0 -8 -5 -11
-11 -7 -6 3 -15 1 -19 -6 -5 -9 -13 -6 -27 9 -18 19 -24 20 -49 10 -16 -7 -37
-11 -46 -10 -13 2 -18 -5 -18 -23 0 -24 -4 -26 -42 -28 -79 -3 -122 1 -168 13
-62 17 -136 55 -143 74 -4 8 -13 15 -22 15 -8 0 -15 9 -15 20 0 11 -11 27 -25
36 -14 9 -31 28 -38 42 -15 31 -38 41 -35 15 3 -37 -2 -53 -18 -53 -13 0 -41
54 -37 71 1 4 -7 5 -17 2 -30 -8 -26 31 7 57 l26 20 -28 30 c-26 27 -82 59
-132 74 -17 5 -23 3 -23 -7 0 -9 -11 -14 -30 -15 -44 -1 -57 -12 -35 -29 18
-13 18 -13 -1 -14 -14 0 -15 -2 -4 -6 25 -10 40 -25 34 -35 -4 -6 -10 -5 -14
3 -9 14 -47 22 -68 14 -10 -3 -3 -17 23 -49 25 -31 38 -59 44 -95 9 -56 42
-101 73 -101 10 0 28 9 40 20 24 22 38 26 38 9 0 -5 -4 -8 -8 -5 -5 3 -8 -10
-8 -29 1 -18 3 -32 6 -30 3 2 10 -8 17 -21 6 -13 7 -24 2 -24 -5 0 -9 -4 -9
-10 0 -5 9 -10 20 -10 11 0 20 -4 20 -10 0 -5 9 -10 20 -10 11 0 20 5 20 10 0
6 6 10 13 8 6 -1 22 2 34 6 17 5 37 -1 74 -20 60 -33 89 -81 89 -148 0 -25 4
-56 10 -70 8 -22 14 -25 47 -21 68 9 97 17 143 41 25 13 49 24 53 24 12 0 37
26 37 38 0 12 30 25 39 17 3 -3 -1 -10 -9 -15 -9 -6 -10 -10 -3 -10 6 0 14 4
17 9 3 4 20 11 37 15 24 4 35 2 45 -11 12 -17 13 -16 22 7 8 20 11 22 16 9 8
-18 68 -19 74 -1 2 8 9 9 23 2 17 -10 61 -5 84 9 18 10 85 11 85 1 0 -6 -6
-10 -12 -10 -8 0 -9 -3 -3 -8 6 -4 16 -19 24 -34 12 -23 17 -26 29 -15 12 9
16 9 20 -1 3 -10 7 -10 18 -1 11 9 14 8 14 -2 0 -9 3 -10 8 -4 4 6 19 18 34
27 23 15 28 15 38 3 7 -8 29 -15 49 -15 20 0 47 -7 59 -16 25 -17 31 -7 5 11
-14 11 -13 13 11 17 20 4 35 -1 54 -18 l27 -23 -25 -2 c-14 -1 -29 -2 -35 -4
-5 -1 -16 -3 -24 -3 -8 -1 -11 -5 -7 -10 4 -4 11 -6 14 -5 4 1 17 -8 30 -19
22 -22 32 -12 10 10 -9 9 -8 12 7 13 27 1 56 6 80 14 14 4 30 -1 48 -15 26
-21 27 -23 10 -35 -15 -11 -21 -10 -42 6 -13 10 -31 19 -40 19 -9 0 -1 -10 19
-22 20 -12 30 -23 23 -25 -7 -3 -13 -9 -13 -15 0 -6 6 -8 13 -5 21 8 69 -47
55 -61 -7 -7 -9 -15 -5 -19 4 -4 12 -2 18 4 8 8 20 8 35 3 14 -6 26 -5 29 1 4
5 3 9 -2 8 -23 -4 -25 3 -3 18 17 12 25 13 28 5 5 -16 23 -16 20 0 -2 6 4 13
13 15 11 3 18 -4 21 -21 3 -14 2 -23 -3 -21 -4 3 -32 -5 -63 -16 -70 -27 -100
-17 -153 52 -20 27 -42 49 -47 49 -5 0 2 -12 17 -28 28 -29 32 -68 7 -77 -10
-4 -29 9 -55 40 -27 31 -46 45 -60 42 -27 -4 -88 -37 -82 -44 3 -2 -4 -15 -15
-28 l-20 -23 -24 23 c-13 12 -24 27 -24 33 0 12 -70 34 -98 31 -9 -1 -30 -1
-45 0 -26 1 -28 3 -22 31 7 33 -2 38 -36 19 -11 -6 -28 -12 -37 -14 -9 -3 -48
-14 -87 -25 -96 -28 -160 -41 -225 -45 -30 -2 -55 -4 -55 -5 0 -1 -22 -2 -48
-3 -43 -1 -48 -3 -43 -21 4 -18 0 -21 -29 -23 -34 -3 -175 -68 -175 -81 0 -4
-13 -13 -30 -19 -21 -8 -30 -18 -30 -33 l0 -22 183 7 c161 6 562 9 811 6 l88
-1 -37 -41 c-45 -50 -85 -132 -85 -175 0 -24 -5 -33 -22 -38 -89 -26 -1449
-32 -1548 -7 -25 7 -51 12 -57 13 -7 1 -13 5 -13 9 0 13 116 129 129 129 6 0
11 9 11 19 0 11 4 22 9 25 13 8 5 110 -8 114 -8 3 -9 8 -2 16 12 14 3 118 -10
111 -4 -3 -15 10 -25 30 -9 19 -20 35 -25 35 -5 0 -9 6 -9 13 0 8 -16 22 -35
33 -38 20 -45 47 -17 63 16 10 16 12 -2 26 -10 8 -22 16 -25 17 -3 2 -20 20
-38 40 -36 42 -44 40 -36 -7 3 -19 3 -49 -1 -67 -5 -28 -14 -38 -52 -57 -42
-20 -48 -20 -63 -6 -22 19 -31 19 -31 1 0 -21 -18 -30 -34 -17 -17 15 -70 -2
-74 -23 -3 -16 51 -74 69 -76 4 0 22 14 40 31 18 17 50 39 72 50 46 24 66 14
59 -30 -2 -18 4 -48 16 -73 26 -57 24 -175 -4 -192 -57 -33 -149 -16 -185 35
-11 16 -25 26 -31 22 -7 -4 -9 0 -5 10 3 9 2 19 -3 22 -6 4 -10 1 -10 -4 0
-19 -22 -12 -27 8 -3 12 -17 23 -35 26 -18 4 -32 15 -36 27 -3 14 -10 18 -27
14 -25 -6 -35 8 -35 49 0 26 -15 41 -25 25 -11 -18 -25 -11 -25 14 0 13 -7 27
-16 30 -8 3 -12 2 -9 -4 3 -6 -1 -7 -9 -4 -20 8 -20 23 -1 30 26 10 18 35 -9
28 -20 -5 -27 0 -40 25 -9 16 -16 42 -16 57 0 23 -3 26 -25 22 -33 -7 -40 6
-19 37 10 15 12 25 5 25 -6 0 -11 -4 -11 -10 0 -16 -30 -12 -36 5 -4 8 0 23 7
32 10 12 10 15 1 9 -8 -5 -12 0 -12 13 0 12 4 21 9 21 14 0 -9 61 -25 67 -16
6 -19 43 -4 43 6 0 4 13 -5 30 -18 35 -19 51 -3 48 7 -2 12 12 12 37 1 46 9
55 52 55 49 0 116 25 236 86 41 20 82 34 105 34 l38 1 -49 45 c-47 44 -55 61
-23 49 8 -4 17 -15 20 -26 3 -11 19 -24 35 -30 17 -6 33 -17 36 -25 3 -8 17
-19 31 -24 14 -5 25 -14 25 -20 0 -7 -9 -5 -22 4 -25 18 -42 21 -34 7 4 -5 27
-19 52 -31 50 -25 71 -58 48 -76 -8 -6 -14 -18 -14 -27 0 -11 -5 -14 -15 -10
-10 3 -26 -6 -43 -24 -15 -16 -36 -33 -47 -37 -13 -5 -15 -10 -7 -13 16 -6 16
-23 -1 -23 -10 0 -14 -16 -16 -51 -1 -30 2 -48 8 -45 5 4 11 -6 13 -20 4 -38
31 -53 56 -31 10 9 33 20 51 23 27 6 37 2 63 -25 23 -24 34 -29 42 -20 8 8 8
13 -1 16 -7 3 -13 11 -13 19 0 8 -12 20 -27 26 -16 7 -30 13 -32 15 -10 7 52
111 77 127 25 16 28 24 22 45 -5 19 0 38 19 70 28 47 51 64 51 37 0 -26 27
-19 67 17 44 39 74 52 83 37 4 -7 18 -6 44 3 43 15 44 32 2 32 -43 0 -59 53
-52 165 4 74 3 88 -14 110 -16 20 -20 22 -20 8 0 -19 -7 -21 -52 -18 -14 1
-29 -4 -33 -10 -4 -6 -16 -8 -27 -5 -11 4 -27 1 -36 -8 -9 -8 -37 -17 -61 -20
-24 -3 -47 -10 -50 -15 -3 -6 -23 -13 -44 -17 -20 -4 -37 -12 -37 -17 0 -6
-12 -8 -30 -5 -17 4 -30 2 -30 -3 0 -6 -4 -10 -10 -10 -5 0 -10 7 -10 15 0 9
-6 12 -16 8 -13 -5 -13 -7 -2 -14 9 -6 6 -9 -11 -9 -16 0 -21 4 -18 14 3 8 -1
17 -9 20 -9 3 -13 10 -9 15 3 5 1 12 -4 16 -6 3 -15 -13 -22 -35 -15 -51 -29
-51 -29 -1 0 54 11 78 61 135 59 67 252 191 361 231 45 17 47 18 42 53 -2 19
-9 41 -15 49 -6 7 -9 13 -6 13 3 0 -5 24 -18 53 -14 28 -25 59 -25 66 0 15
-47 91 -64 103 -5 3 -15 4 -23 1 -7 -3 -13 0 -13 6 0 6 5 11 11 11 8 0 8 4 -1
15 -6 8 -9 19 -5 25 3 5 1 10 -4 10 -6 0 -11 6 -11 13 0 8 -9 22 -20 32 -12
10 -18 25 -16 32 7 17 1 16 -31 -4 -15 -10 -24 -13 -21 -7 4 6 3 24 -2 40 -6
22 -9 24 -10 9 -1 -11 -2 -24 -1 -28 1 -5 -2 -6 -7 -3 -5 3 -7 30 -5 60 2 30
-1 58 -7 61 -6 4 -10 -5 -10 -19 0 -24 -2 -25 -20 -14 -11 7 -20 18 -20 25 0
6 -6 14 -12 17 -10 5 -10 7 0 12 10 5 9 9 -3 18 -15 10 -14 14 4 35 12 13 21
29 21 34 0 6 -6 2 -14 -9 -18 -24 -34 -10 -18 16 7 11 12 28 12 37 1 17 1 17
14 1 14 -18 36 -24 36 -10 0 4 -5 13 -11 19 -13 13 9 53 28 53 7 0 13 10 13
23 0 16 3 18 9 8 6 -9 11 -10 15 -2 4 6 17 11 28 11 19 0 20 4 15 50 -9 71 -3
81 42 74 95 -14 112 -12 125 15 6 14 48 63 94 109 57 58 81 90 77 100 -3 9 -3
13 1 9 4 -4 14 -1 23 6 14 11 14 10 2 -5 -22 -29 3 -21 52 17 26 20 46 41 44
48 -1 7 12 13 34 13 39 2 80 24 117 62 15 16 30 22 43 19 26 -7 148 38 128 47
-8 3 -2 4 12 1 15 -3 42 2 60 10 19 8 26 14 17 15 -10 0 -18 4 -18 9 0 5 8 8
18 6 9 -2 26 -4 37 -4 17 -1 18 -3 5 -12 -12 -9 -11 -9 5 -3 11 4 34 7 50 7
17 0 24 2 16 5 -11 4 -11 6 0 13 18 11 56 11 61 0z m-245 -17 c-3 -3 -12 -4
-19 -1 -8 3 -5 6 6 6 11 1 17 -2 13 -5z m40 -10 c-3 -3 -12 -4 -19 -1 -8 3 -5
6 6 6 11 1 17 -2 13 -5z m-117 -24 c0 -5 -5 -10 -11 -10 -5 0 -7 5 -4 10 3 6
8 10 11 10 2 0 4 -4 4 -10z m740 -170 c0 -5 -7 -10 -16 -10 -8 0 -12 5 -9 10
3 6 10 10 16 10 5 0 9 -4 9 -10z m-1481 -343 c12 -15 5 -27 -16 -27 -7 0 -13
9 -13 20 0 23 13 26 29 7z m31 -482 c0 -8 -2 -15 -4 -15 -2 0 -6 7 -10 15 -3
8 -1 15 4 15 6 0 10 -7 10 -15z m2894 -172 c3 -10 9 -25 13 -33 5 -12 4 -13
-9 -3 -8 7 -18 10 -21 6 -4 -3 -7 6 -7 20 0 30 14 36 24 10z m-2742 -138 c3
-14 1 -25 -3 -25 -5 0 -9 11 -9 25 0 14 2 25 4 25 2 0 6 -11 8 -25z m2779
-152 c34 -20 37 -39 9 -48 -19 -6 -19 -8 -5 -28 20 -29 19 -43 -2 -26 -15 12
-16 12 -10 -3 3 -10 2 -18 -3 -18 -6 0 -10 7 -10 15 0 8 -5 15 -11 15 -6 0 -9
6 -6 13 2 6 -5 22 -16 34 -18 20 -18 23 -3 29 9 3 16 12 16 20 0 18 6 18 41
-3z m-401 -120 c0 -6 -26 -21 -57 -33 -32 -11 -73 -28 -91 -36 -19 -9 -36 -14
-38 -11 -2 2 1 18 7 36 11 31 12 31 30 15 18 -16 21 -14 70 36 l52 53 13 -24
c7 -13 13 -29 14 -36z m20 -53 c9 -16 15 -18 37 -9 36 13 37 12 74 -133 10
-38 22 -47 34 -28 13 21 34 9 41 -24 7 -41 -36 -178 -70 -222 -37 -49 -69 -75
-84 -69 -17 6 -102 -24 -102 -36 0 -4 5 -11 10 -14 15 -9 12 -21 -5 -24 -8 -2
-36 -3 -62 -4 -27 -1 -52 -8 -56 -15 -6 -8 -14 -9 -26 -3 -11 6 -30 7 -47 1
-29 -8 -29 -8 9 -9 51 -1 47 -16 -9 -30 -42 -11 -48 -10 -60 7 -9 13 -21 18
-36 15 -13 -2 -49 5 -80 17 -89 33 -137 104 -157 230 -9 55 -7 74 8 120 13 41
23 55 37 55 15 0 22 -13 34 -57 17 -71 29 -75 20 -8 -5 43 -4 51 12 56 10 3
16 10 12 15 -3 6 0 17 7 25 10 12 9 17 -5 27 -17 12 -16 14 2 37 19 24 20 24
47 6 34 -23 75 -9 75 25 0 25 26 59 45 59 6 0 21 -13 33 -30 26 -34 49 -34
127 0 100 44 120 47 135 20z m-2026 -475 c-4 -8 -7 -15 -9 -15 -2 0 -5 7 -9
15 -3 9 0 15 9 15 9 0 12 -6 9 -15z m-489 -113 c-3 -3 -11 0 -18 7 -9 10 -8
11 6 5 10 -3 15 -9 12 -12z m2049 -317 c21 -16 14 -35 -13 -35 -25 0 -57 36
-39 43 21 9 32 7 52 -8z m149 -20 c12 -3 17 -9 10 -11 -6 -3 -24 2 -38 12 -20
13 -23 19 -13 25 8 5 14 3 16 -5 2 -8 13 -17 25 -21z m-35 -11 c18 -13 21 -19
11 -30 -15 -19 -29 -17 -58 7 -21 17 -22 22 -10 30 20 12 31 11 57 -7z m88
-31 c-1 -13 5 -17 22 -16 12 2 22 -2 22 -8 0 -5 -4 -7 -10 -4 -11 7 -14 -8 -3
-19 14 -14 11 -36 -6 -36 -10 0 -18 7 -18 15 0 8 5 15 11 15 5 0 -2 13 -17 28
-15 16 -24 31 -20 35 12 12 21 7 19 -10z m-18 -69 c-9 -9 -21 -13 -27 -10 -18
12 -12 26 11 26 17 0 19 3 10 12 -8 8 -15 8 -26 -1 -24 -20 -41 -2 -19 19 17
17 19 17 43 -6 23 -22 23 -25 8 -40z m106 40 c3 -8 2 -12 -4 -9 -6 3 -10 10
-10 16 0 14 7 11 14 -7z m-161 -42 c26 -27 26 -28 6 -40 -18 -12 -24 -10 -46
12 -21 21 -23 28 -13 41 17 20 22 19 53 -13z m163 -7 c1 -8 -4 -15 -12 -15 -8
0 -14 5 -14 10 0 6 5 10 11 10 5 0 7 6 3 13 -4 6 -3 8 1 4 5 -4 10 -14 11 -22z
m-1 -45 c3 -5 2 -10 -4 -10 -5 0 -13 5 -16 10 -3 6 -2 10 4 10 5 0 13 -4 16
-10z m5 -29 c0 -5 -9 -7 -20 -4 -11 3 -20 7 -20 9 0 2 9 4 20 4 11 0 20 -4 20
-9z m-254 -126 c14 -17 29 -35 34 -41 6 -8 2 -18 -10 -29 -17 -16 -20 -15 -58
19 -22 20 -44 36 -49 36 -5 0 -18 7 -29 16 -10 8 -14 13 -8 10 7 -3 14 0 17 7
3 8 20 13 42 12 29 -1 43 -8 61 -30z m190 0 c-3 -8 -1 -15 4 -15 6 0 10 5 10
10 0 6 7 10 16 10 8 0 12 -4 9 -10 -4 -6 1 -7 11 -3 12 4 15 2 12 -8 -6 -16
-50 -14 -81 3 -16 8 -17 12 -6 19 21 13 32 11 25 -6z"/>
<path d="M2270 2390 c0 -5 5 -10 10 -10 6 0 10 5 10 10 0 6 -4 10 -10 10 -5 0
-10 -4 -10 -10z"/>
<path d="M2828 2363 c7 -3 16 -2 19 1 4 3 -2 6 -13 5 -11 0 -14 -3 -6 -6z"/>
<path d="M1917 2153 c-4 -3 -7 -11 -7 -17 0 -6 5 -5 12 2 6 6 9 14 7 17 -3 3
-9 2 -12 -2z"/>
<path d="M1933 2134 c-8 -18 -7 -24 3 -28 8 -3 14 0 14 7 0 8 4 6 10 -3 9 -13
10 -13 10 0 0 13 1 13 10 0 8 -13 10 -12 10 3 0 9 -4 17 -10 17 -5 0 -10 6
-10 13 0 22 -25 16 -37 -9z"/>
<path d="M1730 2132 c-30 -8 -56 -19 -58 -24 -2 -4 -12 -8 -22 -8 -10 0 -20
-7 -24 -15 -3 -9 -12 -12 -23 -9 -16 5 -16 4 1 -6 14 -10 20 -10 27 1 6 10 10
7 18 -11 5 -14 10 -21 10 -17 1 4 10 3 20 -3 28 -15 33 10 8 37 l-20 22 26 10
c32 12 77 8 87 -9 4 -7 13 -9 19 -6 6 4 11 2 11 -4 0 -6 5 -8 10 -5 17 10 12
38 -5 31 -11 -4 -15 0 -13 11 4 23 -9 24 -72 5z"/>
<path d="M1873 2143 c-16 -3 -23 -11 -22 -26 1 -17 2 -18 6 -4 2 9 13 17 24
17 10 0 19 5 19 10 0 6 -1 9 -2 9 -2 -1 -13 -4 -25 -6z"/>
<path d="M2120 2120 c0 -5 5 -10 10 -10 6 0 10 5 10 10 0 6 -4 10 -10 10 -5 0
-10 -4 -10 -10z"/>
<path d="M2304 2005 c-74 -51 -47 -204 43 -242 119 -49 190 129 89 224 -39 37
-95 45 -132 18z"/>
<path d="M1442 1820 c-55 -34 -77 -112 -48 -168 57 -109 197 -106 236 5 13 39
12 46 -6 90 -35 84 -112 115 -182 73z"/>
<path d="M1455 1340 c-3 -5 1 -10 9 -10 9 0 16 5 16 10 0 6 -4 10 -9 10 -6 0
-13 -4 -16 -10z"/>
<path d="M875 1278 c-11 -38 -11 -69 1 -79 8 -6 12 -14 9 -18 -8 -15 -13 -61
-6 -61 19 0 48 60 53 107 4 46 3 52 -16 57 -31 8 -36 7 -41 -6z"/>
<path d="M2040 1279 c0 -9 3 -19 8 -23 4 -4 7 -18 7 -32 1 -17 -8 -28 -30 -38
-32 -16 -134 -30 -200 -28 -36 1 -38 0 -17 -10 29 -14 190 5 234 28 18 10 40
13 59 9 18 -4 29 -3 29 4 0 6 -13 11 -30 11 -26 0 -30 4 -30 28 0 31 -29 81
-30 51z"/>
<path d="M2148 1193 c6 -2 18 -2 25 0 6 3 1 5 -13 5 -14 0 -19 -2 -12 -5z"/>
<path d="M815 1060 c-8 -13 4 -32 16 -25 12 8 12 35 0 35 -6 0 -13 -4 -16 -10z"/>
<path d="M1360 931 c0 -5 5 -11 12 -13 7 -3 8 -10 4 -17 -7 -11 -10 -11 -16 0
-7 10 -14 9 -34 -5 -14 -9 -26 -23 -26 -31 0 -8 -4 -15 -10 -15 -5 0 -10 -3
-10 -7 0 -5 19 -9 42 -10 43 -1 68 -21 68 -54 0 -9 9 -28 20 -41 10 -14 16
-28 13 -32 -10 -10 19 -56 35 -56 22 0 82 -65 82 -89 0 -12 5 -21 11 -21 6 0
9 6 6 13 -2 6 11 29 29 51 47 55 67 102 60 140 -7 37 -41 47 -51 15 -4 -13
-12 -18 -22 -15 -8 3 -37 6 -64 6 -37 0 -53 5 -67 20 -9 12 -17 24 -18 28 0 4
-4 23 -8 42 -4 20 -3 47 4 64 6 16 8 32 4 35 -4 3 -9 0 -11 -6 -5 -15 -33 -17
-33 -3 0 6 -4 10 -10 10 -5 0 -10 -4 -10 -9z"/>
<path d="M1078 838 c-26 -9 -41 -48 -19 -48 18 0 71 35 71 48 0 14 -14 14 -52
0z"/>
<path d="M915 830 c3 -5 10 -10 16 -10 5 0 9 5 9 10 0 6 -7 10 -16 10 -8 0
-12 -4 -9 -10z"/>
<path d="M2500 820 c0 -27 17 -43 36 -35 16 6 16 8 4 13 -8 3 -20 12 -27 21
-11 14 -12 14 -13 1z"/>
<path d="M1016 729 c-4 -23 -4 -44 -1 -47 3 -3 5 4 5 15 0 26 10 35 26 22 10
-8 9 -2 -2 20 -9 17 -17 31 -18 31 -2 0 -6 -19 -10 -41z"/>
<path d="M2550 731 c0 -6 5 -13 10 -16 6 -3 10 1 10 9 0 9 -4 16 -10 16 -5 0
-10 -4 -10 -9z"/>
<path d="M2750 669 c12 -16 24 -28 27 -25 7 6 -27 56 -39 56 -5 0 0 -14 12
-31z"/>
<path d="M1328 659 c-24 -13 -23 -25 2 -32 11 -3 20 -1 20 4 0 5 7 9 15 9 8 0
15 7 15 15 0 17 -27 19 -52 4z"/>
<path d="M1221 610 c3 -24 -17 -65 -25 -52 -15 24 -35 13 -33 -18 2 -32 11
-39 20 -16 4 11 16 13 40 9 32 -5 34 -4 32 20 -2 14 -11 36 -20 49 -9 13 -15
17 -14 8z"/>
<path d="M1270 596 c0 -14 5 -26 10 -26 6 0 10 9 10 19 0 11 -4 23 -10 26 -6
4 -10 -5 -10 -19z"/>
<path d="M1193 493 c4 -3 -5 -15 -20 -25 l-28 -18 45 1 c25 0 54 4 65 8 17 7
16 9 -12 15 -18 4 -33 12 -33 17 0 5 -5 9 -12 9 -6 0 -8 -3 -5 -7z m22 -23 c3
-5 1 -10 -4 -10 -6 0 -11 5 -11 10 0 6 2 10 4 10 3 0 8 -4 11 -10z"/>
<path d="M3154 1683 c3 -21 6 -46 6 -55 0 -10 7 -18 16 -18 10 0 14 6 11 18
-3 9 -8 34 -12 55 -3 20 -11 37 -17 37 -7 0 -8 -13 -4 -37z"/>
<path d="M2900 721 c0 -6 4 -13 10 -16 6 -3 7 1 4 9 -7 18 -14 21 -14 7z"/>
</g>
</svg>
